<?xml version="1.0" encoding="UTF-8"?>
<svg width="383px" height="100px" viewBox="0 0 383 100" version="1.1" xmlns="http://www.w3.org/2000/svg" xmlns:xlink="http://www.w3.org/1999/xlink">
    <!-- Generator: Sketch 52.4 (67378) - http://www.bohemiancoding.com/sketch -->
    <title>Table View / Multi-line / _Expense / SEL Default</title>
    <desc>Created with Sketch.</desc>
    <defs>
        <filter x="-3.2%" y="-1.7%" width="106.4%" height="103.5%" filterUnits="objectBoundingBox" id="filter-1">
            <feOffset dx="0" dy="2" in="SourceAlpha" result="shadowOffsetOuter1"></feOffset>
            <feGaussianBlur stdDeviation="2" in="shadowOffsetOuter1" result="shadowBlurOuter1"></feGaussianBlur>
            <feColorMatrix values="0 0 0 0 0   0 0 0 0 0   0 0 0 0 0  0 0 0 0.15 0" type="matrix" in="shadowBlurOuter1" result="shadowMatrixOuter1"></feColorMatrix>
            <feMerge>
                <feMergeNode in="shadowMatrixOuter1"></feMergeNode>
                <feMergeNode in="SourceGraphic"></feMergeNode>
            </feMerge>
        </filter>
        <path d="M15.375,9 C15.375,8.793 15.207375,8.625 15,8.625 L13.875,8.625 C13.667625,8.625 13.5,8.793 13.5,9 L13.5,10.125 C13.5,10.332375 13.667625,10.5 13.875,10.5 L15,10.5 C15.207375,10.5 15.375,10.332375 15.375,10.125 L15.375,9 Z M16.5,7.5 L16.5,12.75 C16.5,13.371375 15.996375,13.875 15.375,13.875 L2.625,13.875 C2.003625,13.875 1.5,13.371375 1.5,12.75 L1.5,7.5 L16.5,7.5 Z M1.5,5.625 L1.5,5.25 C1.5,4.628625 2.003625,4.125 2.625,4.125 L15.375,4.125 C15.996375,4.125 16.5,4.628625 16.5,5.25 L16.5,5.625 L1.5,5.625 Z" id="path-2"></path>
        <rect id="path-4" x="0" y="0" width="56" height="76"></rect>
        <path d="M24.75,27.03375 L27,27.03375 L27,31.33275 L23.65875,32.712 C23.22,32.89275 22.72125,32.856 22.314,32.6115 L20.86125,31.73775 C20.439,31.485 19.92,31.455 19.47075,31.6575 L17.1615,32.7015 C16.74375,32.8905 16.263,32.87775 15.85575,32.66775 L13.959,31.68825 C13.52775,31.4655 13.0155,31.4655 12.58425,31.6875 L10.656,32.68125 C10.2645,32.88375 9.80325,32.90325 9.396,32.73525 L6,31.33275 L6,3 L27,3 L27,8.823 L24.75,8.823 L24.75,5.25 L8.25,5.25 L8.25,29.82825 L9.29175,30.258 C9.699,30.42525 10.1595,30.4065 10.551,30.20475 L12.24075,29.33325 L12.585,29.15625 C13.01625,28.9335 13.52925,28.9335 13.95975,29.15625 L14.304,29.334 L15.921,30.16875 C16.32825,30.37875 16.809,30.3915 17.22675,30.2025 L19.26075,29.283 L19.6185,29.121 C20.067,28.9185 20.58675,28.9485 21.009,29.20275 L21.34575,29.4045 L22.50225,30.09975 C22.9095,30.34425 23.40825,30.38175 23.847,30.201 L24.75,29.82825 L24.75,27.03375 Z M10.5,9 L10.5,7.5 L21,7.5 L21,9 L10.5,9 Z M10.5,12.75 L10.5,11.25 L17.25,11.25 L17.25,12.75 L10.5,12.75 Z M10.5,16.5 L10.5,15 L19.5015,15 L19.5015,16.5 L10.5,16.5 Z M27.02085,10.495875 L29.98035,10.495875 L29.98035,16.520625 L36.00435,16.520625 L36.00435,19.479375 L29.98035,19.479375 L30.03285,25.451625 L27.02085,25.451625 L27.02085,19.479375 L21.04935,19.479375 L21.04935,16.467375 L27.02085,16.520625 L27.02085,10.495875 Z" id="path-6"></path>
        <rect id="path-8" x="0" y="0" width="56" height="76" rx="2"></rect>
    </defs>
    <g id="Modules" stroke="none" stroke-width="1" fill="none" fill-rule="evenodd">
        <g id="ExpenseProductShotPrototype_ExplodedHoverAction" transform="translate(-977.000000, -589.000000)">
            <g id="col-right" filter="url(#filter-1)" transform="translate(981.000000, 89.000000)">
                <g id="device-mock">
                    <g id="ReportExpenses">
                        <g id="ReportExpensesBezel">
                            <g id="Group">
                                <g id="Table-View-/-Multi-line-/-_Expense-/-SEL-Default" transform="translate(0.000000, 502.000000)">
                                    <g id="19---White" fill="#FFFFFF">
                                        <rect id="White" x="0" y="0" width="375" height="92"></rect>
                                    </g>
                                    <g id="Table-View-/-_Resources-/-_Border-/-Line---Light-Grey" transform="translate(0.000000, 91.000000)" fill="#DBE1E6">
                                        <rect id="Border" x="0" y="0" width="375" height="1"></rect>
                                    </g>
                                    <g id="Right" transform="translate(297.000000, 16.000000)">
                                        <g id="Icon">
                                            <g id="Credit_charge" transform="translate(44.000000, 24.000000)">
                                                <mask id="mask-3" fill="white">
                                                    <use xlink:href="#path-2"></use>
                                                </mask>
                                                <use id="Mask" fill="#A7B6BF" fill-rule="evenodd" xlink:href="#path-2"></use>
                                                <g id="16---Medium-Grey" mask="url(#mask-3)" fill="#A7B6BF" fill-rule="evenodd">
                                                    <rect id="Medium-Grey" x="0" y="0" width="18" height="18"></rect>
                                                </g>
                                                <g id="_None" mask="url(#mask-3)">
                                                    <rect id="Bounding-Box" x="0" y="0" width="18" height="18"></rect>
                                                </g>
                                            </g>
                                        </g>
                                        <text id="Amount" font-family="SFProText-Medium, SF Pro Text" font-size="15" font-weight="400" fill="#0078C8">
                                            <tspan x="8.98730469" y="14">$24.42</tspan>
                                        </text>
                                    </g>
                                    <g id="Left" transform="translate(88.000000, 16.000000)">
                                        <text id="Vendor-/-Location" font-family="SFProText-Regular, SF Pro Text" font-size="12" font-weight="normal" fill="#7F8F97">
                                            <tspan x="0" y="57">Uber - Seattle, Washington</tspan>
                                        </text>
                                        <text id="Date" font-family="SFProText-Regular, SF Pro Text" font-size="12" font-weight="normal" fill="#7F8F97">
                                            <tspan x="0" y="35">Mar 12</tspan>
                                        </text>
                                        <text id="Expense-Type" font-family="SFProText-Medium, SF Pro Text" font-size="15" font-weight="400" fill="#383F46">
                                            <tspan x="0" y="14">Taxi-Shuttle-Train</tspan>
                                        </text>
                                    </g>
                                    <g id="Views-/-Receipts-/-SEL-/-Receipt-Unavailable" transform="translate(16.000000, 8.000000)">
                                        <mask id="mask-5" fill="white">
                                            <use xlink:href="#path-4"></use>
                                        </mask>
                                        <g id="Background"></g>
                                        <g id="Receipt_add" mask="url(#mask-5)">
                                            <g transform="translate(10.000000, 20.000000)">
                                                <mask id="mask-7" fill="white">
                                                    <use xlink:href="#path-6"></use>
                                                </mask>
                                                <use id="Mask" stroke="none" fill="#A7B6BF" fill-rule="evenodd" xlink:href="#path-6"></use>
                                                <g id="17---Light-Grey" stroke="none" fill="none" mask="url(#mask-7)" fill-rule="evenodd">
                                                    <rect id="Light-Grey" fill="#DBE1E6" x="0" y="0" width="36" height="36"></rect>
                                                </g>
                                                <g id="_None" stroke="none" fill="none" mask="url(#mask-7)">
                                                    <rect id="Bounding-Box" x="0" y="0" width="36" height="36"></rect>
                                                </g>
                                            </g>
                                        </g>
                                        <mask id="mask-9" fill="white">
                                            <use xlink:href="#path-8"></use>
                                        </mask>
                                        <rect stroke="#DBE1E6" stroke-width="1" x="0.5" y="0.5" width="55" height="75" rx="2"></rect>
                                    </g>
                                </g>
                            </g>
                        </g>
                    </g>
                </g>
            </g>
        </g>
    </g>
</svg>